<svg xmlns="http://www.w3.org/2000/svg" aria-hidden="true" style="position:absolute;width:0;height:0;overflow:hidden">
  <defs>
    <symbol id="icon-mob-menu" viewBox="0 0 48 32">
      <path fill="none" stroke="#ecd979" stroke-linecap="round" stroke-width="2.667" d="M8.638 5.455h38.029M8.638 24.849h38.029M20.116 15.151h26.551" style="stroke:var(--color1, #ecd979)"/>
    </symbol>
    <symbol id="icon-logo" viewBox="0 0 35 32">
      <path fill="#ecd979" d="M15.392 11.53h-1.098v-1.113h1.098v1.113z" style="fill:var(--color1, #ecd979)"/>
      <path fill="#ecd979" d="M14.294 11.53h-1.098v-1.113h1.098v1.113zM8.805 11.53H7.707v-1.113h1.098v1.113zM7.706 11.53H6.608v-1.113h1.098v1.113z" style="fill:var(--color1, #ecd979)"/>
      <path fill="#ecd979" d="M6.609 11.53H5.511v-1.113h1.098v1.113zM28.566 10.417h-1.098V9.304h1.098v1.113zM27.468 10.417H26.37V9.304h1.098v1.113zM19.783 10.417h-1.098V9.304h1.098v1.113zM18.685 10.417h-1.098V9.304h1.098v1.113zM16.489 10.417h-1.098V9.304h1.098v1.113z" style="fill:var(--color1, #ecd979)"/>
      <path fill="#ecd979" d="M15.392 10.417h-1.098V9.304h1.098v1.113zM7.706 10.417H6.608V9.304h1.098v1.113z" style="fill:var(--color1, #ecd979)"/>
      <path fill="#ecd979" d="M6.609 10.417H5.511V9.304h1.098v1.113zM28.566 9.304h-1.098V8.191h1.098v1.113zM18.685 9.304h-1.098V8.191h1.098v1.113zM16.489 9.304h-1.098V8.191h1.098v1.113zM6.609 9.304H5.511V8.191h1.098v1.113zM34.055 8.191h-1.098V7.078h1.098v1.113zM1.12 8.191H.022V7.078H1.12v1.113zM34.055 7.078h-1.098V5.965h1.098v1.113zM32.957 7.078h-1.098V5.965h1.098v1.113zM23.077 7.078h-1.098V5.965h1.098v1.113zM21.978 7.078H20.88V5.965h1.098v1.113z" style="fill:var(--color1, #ecd979)"/>
      <path fill="#ecd979" d="M20.881 7.078h-1.098V5.965h1.098v1.113zM14.294 7.078h-1.098V5.965h1.098v1.113zM13.196 7.078h-1.098V5.965h1.098v1.113z" style="fill:var(--color1, #ecd979)"/>
      <path fill="#ecd979" d="M12.098 7.078H11V5.965h1.098v1.113zM2.217 7.078H1.119V5.965h1.098v1.113z" style="fill:var(--color1, #ecd979)"/>
      <path fill="#ecd979" d="M1.12 7.078H.022V5.965H1.12v1.113zM34.055 5.965h-1.098V4.852h1.098v1.113zM32.957 5.965h-1.098V4.852h1.098v1.113z" style="fill:var(--color1, #ecd979)"/>
      <path fill="#ecd979" d="M31.86 5.965h-1.098V4.852h1.098v1.113zM24.174 5.965h-1.098V4.852h1.098v1.113z" style="fill:var(--color1, #ecd979)"/>
      <path fill="#ecd979" d="M23.077 5.965h-1.098V4.852h1.098v1.113zM21.978 5.965H20.88V4.852h1.098v1.113zM18.685 5.965h-1.098V4.852h1.098v1.113zM16.489 5.965h-1.098V4.852h1.098v1.113zM13.196 5.965h-1.098V4.852h1.098v1.113z" style="fill:var(--color1, #ecd979)"/>
      <path fill="#ecd979" d="M12.098 5.965H11V4.852h1.098v1.113zM11 5.965H9.902V4.852H11v1.113zM3.315 5.965H2.217V4.852h1.098v1.113zM2.217 5.965H1.119V4.852h1.098v1.113z" style="fill:var(--color1, #ecd979)"/>
      <path fill="#ecd979" d="M1.12 5.965H.022V4.852H1.12v1.113zM32.957 4.852h-1.098V3.739h1.098v1.113z" style="fill:var(--color1, #ecd979)"/>
      <path fill="#ecd979" d="M31.86 4.852h-1.098V3.739h1.098v1.113zM30.761 4.852h-1.098V3.739h1.098v1.113zM25.272 4.852h-1.098V3.739h1.098v1.113zM24.174 4.852h-1.098V3.739h1.098v1.113z" style="fill:var(--color1, #ecd979)"/>
      <path fill="#ecd979" d="M23.077 4.852h-1.098V3.739h1.098v1.113zM19.783 4.852h-1.098V3.739h1.098v1.113zM18.685 4.852h-1.098V3.739h1.098v1.113zM16.489 4.852h-1.098V3.739h1.098v1.113z" style="fill:var(--color1, #ecd979)"/>
      <path fill="#ecd979" d="M15.392 4.852h-1.098V3.739h1.098v1.113zM12.098 4.852H11V3.739h1.098v1.113zM11 4.852H9.902V3.739H11v1.113z" style="fill:var(--color1, #ecd979)"/>
      <path fill="#ecd979" d="M9.903 4.852H8.805V3.739h1.098v1.113zM4.413 4.852H3.315V3.739h1.098v1.113z" style="fill:var(--color1, #ecd979)"/>
      <path fill="#ecd979" d="M3.315 4.852H2.217V3.739h1.098v1.113zM2.217 4.852H1.119V3.739h1.098v1.113zM31.86 3.739h-1.098V2.626h1.098v1.113zM30.761 3.739h-1.098V2.626h1.098v1.113z" style="fill:var(--color1, #ecd979)"/>
      <path fill="#ecd979" d="M29.664 3.739h-1.098V2.626h1.098v1.113zM20.881 3.739h-1.098V2.626h1.098v1.113zM19.783 3.739h-1.098V2.626h1.098v1.113zM18.685 3.739h-1.098V2.626h1.098v1.113zM16.489 3.739h-1.098V2.626h1.098v1.113z" style="fill:var(--color1, #ecd979)"/>
      <path fill="#ecd979" d="M15.392 3.739h-1.098V2.626h1.098v1.113z" style="fill:var(--color1, #ecd979)"/>
      <path fill="#ecd979" d="M14.294 3.739h-1.098V2.626h1.098v1.113zM5.511 3.739H4.413V2.626h1.098v1.113zM4.413 3.739H3.315V2.626h1.098v1.113z" style="fill:var(--color1, #ecd979)"/>
      <path fill="#ecd979" d="M3.315 3.739H2.217V2.626h1.098v1.113zM35.153 2.626h-1.098V1.513h1.098v1.113zM30.761 2.626h-1.098V1.513h1.098v1.113z" style="fill:var(--color1, #ecd979)"/>
      <path fill="#ecd979" d="M29.664 2.626h-1.098V1.513h1.098v1.113zM28.566 2.626h-1.098V1.513h1.098v1.113zM20.881 2.626h-1.098V1.513h1.098v1.113zM19.783 2.626h-1.098V1.513h1.098v1.113zM15.392 2.626h-1.098V1.513h1.098v1.113z" style="fill:var(--color1, #ecd979)"/>
      <path fill="#ecd979" d="M14.294 2.626h-1.098V1.513h1.098v1.113zM6.609 2.626H5.511V1.513h1.098v1.113zM5.511 2.626H4.413V1.513h1.098v1.113zM4.413 2.626H3.315V1.513h1.098v1.113zM35.153 1.513h-1.098V.4h1.098v1.113zM34.055 1.513h-1.098V.4h1.098v1.113zM29.664 1.513h-1.098V.4h1.098v1.113zM28.566 1.513h-1.098V.4h1.098v1.113zM27.468 1.513H26.37V.4h1.098v1.113zM20.881 1.513h-1.098V.4h1.098v1.113zM14.294 1.513h-1.098V.4h1.098v1.113zM7.706 1.513H6.608V.4h1.098v1.113z" style="fill:var(--color1, #ecd979)"/>
      <path fill="#ecd979" d="M6.609 1.513H5.511V.4h1.098v1.113zM5.511 1.513H4.413V.4h1.098v1.113zM1.12 1.513H.022V.4H1.12v1.113z" style="fill:var(--color1, #ecd979)"/>
    </symbol>
    <symbol id="icon-facebook" viewBox="0 0 13 32">
      <path fill="#fcf9f9" d="M11.329.096h1.344v5.04h-1.68c-.672 0-1.344 0-1.68.336-.336.336-.336.672-.336 1.456V8.72h3.696v4.256H8.977v18.48H3.265V12.864H.241V8.608h3.024V7.152c0-2.464.336-4.256 1.008-5.04C5.281.656 7.297-.016 10.321-.016c.336.112.672.112 1.008.112z" style="fill:var(--color2, #fcf9f9)"/>
    </symbol>
    <symbol id="icon-instagram" viewBox="0 0 32 32">
      <path fill="#fcf9f9" d="M30.837 9.882a10.8 10.8 0 0 0-.695-3.669 7.64 7.64 0 0 0-4.367-4.36 10.97 10.97 0 0 0-3.625-.695c-1.596-.071-2.101-.091-6.151-.091s-4.569 0-6.153.091a10.97 10.97 0 0 0-3.624.695 7.635 7.635 0 0 0-4.367 4.36 10.834 10.834 0 0 0-.695 3.618c-.071 1.595-.093 2.1-.093 6.143s0 4.56.093 6.143a10.91 10.91 0 0 0 .695 3.621 7.64 7.64 0 0 0 4.369 4.358c1.154.45 2.38.705 3.624.745 1.597.071 2.103.093 6.153.093s4.569 0 6.153-.093a10.939 10.939 0 0 0 3.626-.694 7.649 7.649 0 0 0 4.367-4.36c.436-1.159.67-2.381.695-3.621.071-1.593.093-2.098.093-6.143-.003-4.043-.003-4.557-.096-6.141zM15.988 23.62c-4.236 0-7.667-3.426-7.667-7.655s3.431-7.655 7.667-7.655c4.233 0 7.667 3.426 7.667 7.655s-3.435 7.655-7.667 7.655zm7.973-13.808a1.784 1.784 0 1 1 0-3.57 1.784 1.784 0 1 1 0 3.57z" style="fill:var(--color2, #fcf9f9)"/>
    </symbol>
    <symbol id="icon-youtube" viewBox="0 0 46 32">
      <path fill="#fcf9f9" d="M35.929.444C33.813.32 29.458.195 22.863.195h-.871c-6.347 0-10.578.124-12.693.373-2.862.249-4.853.996-5.973 1.991-.996.871-1.742 2.489-1.991 4.604-.124 1.369-.249 4.231-.249 8.587v.622c0 4.107.124 6.969.373 8.338.373 1.991.996 3.484 2.24 4.356 1.244.996 3.36 1.618 6.347 1.867 2.116.124 6.471.249 13.067.249h.871c6.347 0 10.578-.124 12.693-.373 2.862-.249 4.853-.996 5.973-1.991.996-.871 1.742-2.489 1.991-4.604.124-1.369.249-4.231.249-8.587v-.622c0-4.107-.124-6.969-.373-8.338-.373-1.991-.996-3.484-2.24-4.356-1.244-.996-3.36-1.618-6.347-1.867zm-4.853 15.307-13.689 8.213V7.537l13.689 8.213z" style="fill:var(--color2, #fcf9f9)"/>
    </symbol>
    <symbol id="icon-footer" viewBox="0 0 57 32">
      <path fill="#ecd979" d="M58.143 32.39h-2.128v-2.159h2.128v2.159zM30.48 32.39h-2.128v-2.159h2.128v2.159z" style="fill:var(--color1, #ecd979)"/>
      <path fill="#ecd979" d="M28.353 32.39h-2.128v-2.159h2.128v2.159zM26.225 32.39h-2.128v-2.159h2.128v2.159zM51.76 30.23h-2.128v-2.159h2.128v2.159zM49.632 30.23h-2.128v-2.159h2.128v2.159zM47.504 30.23h-2.128v-2.159h2.128v2.159zM43.248 30.23H41.12v-2.159h2.128v2.159zM41.12 30.23h-2.128v-2.159h2.128v2.159zM28.353 30.23h-2.128v-2.159h2.128v2.159zM15.585 30.23h-2.128v-2.159h2.128v2.159zM13.457 30.23h-2.128v-2.159h2.128v2.159zM9.202 30.23H7.074v-2.159h2.128v2.159zM7.074 30.23H4.946v-2.159h2.128v2.159zM4.946 30.23H2.818v-2.159h2.128v2.159zM53.887 28.071h-2.128v-2.159h2.128v2.159z" style="fill:var(--color1, #ecd979)"/>
      <path fill="#ecd979" d="M51.76 28.071h-2.128v-2.159h2.128v2.159zM49.632 28.071h-2.128v-2.159h2.128v2.159zM41.12 28.071h-2.128v-2.159h2.128v2.159zM38.992 28.071h-2.128v-2.159h2.128v2.159zM17.713 28.071h-2.128v-2.159h2.128v2.159zM15.585 28.071h-2.128v-2.159h2.128v2.159zM7.074 28.071H4.946v-2.159h2.128v2.159zM4.946 28.071H2.818v-2.159h2.128v2.159zM2.818 28.071H.69v-2.159h2.128v2.159zM56.015 25.912h-2.128v-2.159h2.128v2.159zM53.887 25.912h-2.128v-2.159h2.128v2.159z" style="fill:var(--color1, #ecd979)"/>
      <path fill="#ecd979" d="M51.76 25.912h-2.128v-2.159h2.128v2.159zM45.376 25.912h-2.128v-2.159h2.128v2.159zM38.992 25.912h-2.128v-2.159h2.128v2.159zM36.864 25.912h-2.128v-2.159h2.128v2.159zM19.841 25.912h-2.128v-2.159h2.128v2.159zM17.713 25.912h-2.128v-2.159h2.128v2.159zM11.33 25.912H9.202v-2.159h2.128v2.159zM4.946 25.912H2.818v-2.159h2.128v2.159zM2.818 25.912H.69v-2.159h2.128v2.159zM.69 25.912h-2.128v-2.159H.69v2.159zM47.504 23.752h-2.128v-2.159h2.128v2.159zM45.376 23.752h-2.128v-2.159h2.128v2.159zM36.864 23.752h-2.128v-2.159h2.128v2.159zM34.736 23.752h-2.128v-2.159h2.128v2.159zM21.969 23.752h-2.128v-2.159h2.128v2.159zM19.841 23.752h-2.128v-2.159h2.128v2.159zM11.33 23.752H9.202v-2.159h2.128v2.159zM9.202 23.752H7.074v-2.159h2.128v2.159zM49.632 21.593h-2.128v-2.159h2.128v2.159zM47.504 21.593h-2.128v-2.159h2.128v2.159zM45.376 21.593h-2.128v-2.159h2.128v2.159zM34.736 21.593h-2.128v-2.159h2.128v2.159z" style="fill:var(--color1, #ecd979)"/>
      <path fill="#ecd979" d="M32.608 21.593H30.48v-2.159h2.128v2.159zM24.097 21.593h-2.128v-2.159h2.128v2.159zM21.969 21.593h-2.128v-2.159h2.128v2.159zM11.33 21.593H9.202v-2.159h2.128v2.159zM9.202 21.593H7.074v-2.159h2.128v2.159zM7.074 21.593H4.946v-2.159h2.128v2.159zM49.632 19.434h-2.128v-2.159h2.128v2.159zM47.504 19.434h-2.128v-2.159h2.128v2.159zM32.608 19.434H30.48v-2.159h2.128v2.159zM30.48 19.434h-2.128v-2.159h2.128v2.159zM26.225 19.434h-2.128v-2.159h2.128v2.159zM24.097 19.434h-2.128v-2.159h2.128v2.159zM9.202 19.434H7.074v-2.159h2.128v2.159zM7.074 19.434H4.946v-2.159h2.128v2.159zM49.632 17.275h-2.128v-2.159h2.128v2.159zM30.48 17.275h-2.128v-2.159h2.128v2.159zM26.225 17.275h-2.128v-2.159h2.128v2.159zM7.074 17.275H4.946v-2.159h2.128v2.159zM58.143 12.956h-2.128v-2.159h2.128v2.159zM38.992 12.956h-2.128v-2.159h2.128v2.159zM36.864 12.956h-2.128v-2.159h2.128v2.159zM34.736 12.956h-2.128v-2.159h2.128v2.159zM21.969 12.956h-2.128v-2.159h2.128v2.159zM19.841 12.956h-2.128v-2.159h2.128v2.159zM17.713 12.956h-2.128v-2.159h2.128v2.159zM58.143 10.797h-2.128V8.638h2.128v2.159zM56.015 10.796h-2.128V8.637h2.128v2.159zM41.12 10.797h-2.128V8.638h2.128v2.159zM38.992 10.796h-2.128V8.637h2.128v2.159zM36.864 10.796h-2.128V8.637h2.128v2.159zM30.48 10.796h-2.128V8.637h2.128v2.159zM26.225 10.796h-2.128V8.637h2.128v2.159zM19.841 10.797h-2.128V8.638h2.128v2.159zM17.713 10.797h-2.128V8.638h2.128v2.159zM15.585 10.796h-2.128V8.637h2.128v2.159zM.69 10.797h-2.128V8.638H.69v2.159zM58.143 8.637h-2.128V6.478h2.128v2.159zM56.015 8.637h-2.128V6.478h2.128v2.159zM53.887 8.637h-2.128V6.478h2.128v2.159zM43.248 8.637H41.12V6.478h2.128v2.159zM41.12 8.637h-2.128V6.478h2.128v2.159zM38.992 8.637h-2.128V6.478h2.128v2.159zM32.608 8.637H30.48V6.478h2.128v2.159zM30.48 8.637h-2.128V6.478h2.128v2.159zM26.225 8.637h-2.128V6.478h2.128v2.159zM24.097 8.637h-2.128V6.478h2.128v2.159zM17.713 8.637h-2.128V6.478h2.128v2.159zM15.585 8.637h-2.128V6.478h2.128v2.159zM13.457 8.637h-2.128V6.478h2.128v2.159zM2.818 8.637H.69V6.478h2.128v2.159zM.69 8.637h-2.128V6.478H.69v2.159zM56.015 6.478h-2.128V4.319h2.128v2.159zM53.887 6.478h-2.128V4.319h2.128v2.159z" style="fill:var(--color1, #ecd979)"/>
      <path fill="#ecd979" d="M51.76 6.478h-2.128V4.319h2.128v2.159zM34.736 6.478h-2.128V4.319h2.128v2.159z" style="fill:var(--color1, #ecd979)"/>
      <path fill="#ecd979" d="M32.608 6.478H30.48V4.319h2.128v2.159zM30.48 6.478h-2.128V4.319h2.128v2.159zM26.225 6.478h-2.128V4.319h2.128v2.159zM24.097 6.478h-2.128V4.319h2.128v2.159zM21.969 6.478h-2.128V4.319h2.128v2.159zM4.946 6.478H2.818V4.319h2.128v2.159zM2.818 6.478H.69V4.319h2.128v2.159zM.69 6.478h-2.128V4.319H.69v2.159zM53.887 4.319h-2.128V2.16h2.128v2.159z" style="fill:var(--color1, #ecd979)"/>
      <path fill="#ecd979" d="M51.76 4.319h-2.128V2.16h2.128v2.159zM49.632 4.319h-2.128V2.16h2.128v2.159zM34.736 4.319h-2.128V2.16h2.128v2.159z" style="fill:var(--color1, #ecd979)"/>
      <path fill="#ecd979" d="M32.608 4.319H30.48V2.16h2.128v2.159zM24.097 4.319h-2.128V2.16h2.128v2.159zM21.969 4.319h-2.128V2.16h2.128v2.159zM7.074 4.319H4.946V2.16h2.128v2.159zM4.946 4.319H2.818V2.16h2.128v2.159zM2.818 4.319H.69V2.16h2.128v2.159zM51.76 2.159h-2.128V0h2.128v2.159zM49.632 2.159h-2.128V0h2.128v2.159zM47.504 2.159h-2.128V0h2.128v2.159zM34.736 2.159h-2.128V0h2.128v2.159zM21.969 2.159h-2.128V0h2.128v2.159zM9.202 2.159H7.074V0h2.128v2.159zM7.074 2.159H4.946V0h2.128v2.159zM4.946 2.159H2.818V0h2.128v2.159z" style="fill:var(--color1, #ecd979)"/>
    </symbol>
    <symbol id="icon-close" viewBox="0 0 32 32">
      <path stroke-linecap="round" stroke-linejoin="round" stroke-width="1.778" d="M24 8 8 24M8 8l16 16"/>
    </symbol>
    <symbol id="icon-our-collection" viewBox="0 0 13 32">
      <path fill="#ecd979" d="M12.969 31.964h-1.122v-1.142h1.122v1.142zM11.847 31.964h-1.122v-1.142h1.122v1.142zM7.358 31.964H6.236v-1.142h1.122v1.142zM6.236 31.964H5.114v-1.142h1.122v1.142zM5.114 31.964H3.992v-1.142h1.122v1.142z" style="fill:var(--color1, #ecd979)"/>
      <path fill="#ecd979" d="M12.969 30.823h-1.122v-1.142h1.122v1.142zM8.48 30.823H7.358v-1.142H8.48v1.142zM7.358 30.823H6.236v-1.142h1.122v1.142zM6.236 30.823H5.114v-1.142h1.122v1.142zM9.602 29.681H8.48v-1.142h1.122v1.142zM8.48 29.681H7.358v-1.142H8.48v1.142zM7.358 29.681H6.236v-1.142h1.122v1.142zM10.725 28.54H9.603v-1.142h1.122v1.142z" style="fill:var(--color1, #ecd979)"/>
      <path fill="#ecd979" d="M9.602 28.54H8.48v-1.142h1.122v1.142zM8.48 28.54H7.358v-1.142H8.48v1.142zM2.87 28.54H1.748v-1.142H2.87v1.142z" style="fill:var(--color1, #ecd979)"/>
      <path fill="#ecd979" d="M1.748 28.54H.626v-1.142h1.122v1.142zM.626 28.54H-.496v-1.142H.626v1.142zM11.847 27.398h-1.122v-1.142h1.122v1.142zM10.725 27.398H9.603v-1.142h1.122v1.142zM9.602 27.398H8.48v-1.142h1.122v1.142zM1.748 27.398H.626v-1.142h1.122v1.142zM.626 27.398H-.496v-1.142H.626v1.142zM11.847 26.256h-1.122v-1.142h1.122v1.142zM10.725 26.256H9.603v-1.142h1.122v1.142zM.626 26.256H-.496v-1.142H.626v1.142z" style="fill:var(--color1, #ecd979)"/>
      <path fill="#ecd979" d="M11.847 25.115h-1.122v-1.142h1.122v1.142zM6.236 25.115H5.114v-1.142h1.122v1.142zM6.236 23.973H5.114v-1.142h1.122v1.142zM5.114 23.973H3.992v-1.142h1.122v1.142z" style="fill:var(--color1, #ecd979)"/>
      <path fill="#ecd979" d="M6.236 22.832H5.114V21.69h1.122v1.142zM5.114 22.832H3.992V21.69h1.122v1.142zM3.992 22.832H2.87V21.69h1.122v1.142zM5.114 21.69H3.992v-1.142h1.122v1.142zM3.992 21.69H2.87v-1.142h1.122v1.142zM9.602 20.549H8.48v-1.142h1.122v1.142zM8.48 20.549H7.358v-1.142H8.48v1.142zM7.358 20.549H6.236v-1.142h1.122v1.142z" style="fill:var(--color1, #ecd979)"/>
      <path fill="#ecd979" d="M3.992 20.549H2.87v-1.142h1.122v1.142zM.626 20.549H-.496v-1.142H.626v1.142zM12.969 19.407h-1.122v-1.142h1.122v1.142zM8.48 19.407H7.358v-1.142H8.48v1.142zM7.358 19.407H6.236v-1.142h1.122v1.142zM6.236 19.407H5.114v-1.142h1.122v1.142zM1.748 19.407H.626v-1.142h1.122v1.142zM.626 19.407H-.496v-1.142H.626v1.142zM12.969 18.265h-1.122v-1.142h1.122v1.142zM11.847 18.265h-1.122v-1.142h1.122v1.142zM7.358 18.265H6.236v-1.142h1.122v1.142zM6.236 18.265H5.114v-1.142h1.122v1.142zM5.114 18.265H3.992v-1.142h1.122v1.142zM2.87 18.265H1.748v-1.142H2.87v1.142z" style="fill:var(--color1, #ecd979)"/>
      <path fill="#ecd979" d="M1.748 18.265H.626v-1.142h1.122v1.142zM12.969 17.124h-1.122v-1.142h1.122v1.142zM11.847 17.124h-1.122v-1.142h1.122v1.142zM10.725 17.124H9.603v-1.142h1.122v1.142zM12.969 15.982h-1.122V14.84h1.122v1.142zM11.847 15.982h-1.122V14.84h1.122v1.142zM7.358 15.982H6.236V14.84h1.122v1.142zM6.236 15.982H5.114V14.84h1.122v1.142zM5.114 15.982H3.992V14.84h1.122v1.142zM2.87 15.982H1.748V14.84H2.87v1.142z" style="fill:var(--color1, #ecd979)"/>
      <path fill="#ecd979" d="M1.748 15.982H.626V14.84h1.122v1.142zM12.969 14.841h-1.122v-1.142h1.122v1.142zM8.48 14.841H7.358v-1.142H8.48v1.142zM7.358 14.841H6.236v-1.142h1.122v1.142zM6.236 14.841H5.114v-1.142h1.122v1.142z" style="fill:var(--color1, #ecd979)"/>
      <path fill="#ecd979" d="M1.748 14.841H.626v-1.142h1.122v1.142zM.626 14.841H-.496v-1.142H.626v1.142zM9.602 13.699H8.48v-1.142h1.122v1.142zM8.48 13.699H7.358v-1.142H8.48v1.142zM7.358 13.699H6.236v-1.142h1.122v1.142zM3.992 13.699H2.87v-1.142h1.122v1.142zM.626 13.699H-.496v-1.142H.626v1.142zM5.114 12.557H3.992v-1.142h1.122v1.142zM3.992 12.557H2.87v-1.142h1.122v1.142zM6.236 11.416H5.114v-1.142h1.122v1.142z" style="fill:var(--color1, #ecd979)"/>
      <path fill="#ecd979" d="M5.114 11.416H3.992v-1.142h1.122v1.142zM3.992 11.416H2.87v-1.142h1.122v1.142zM6.236 10.274H5.114V9.132h1.122v1.142zM5.114 10.274H3.992V9.132h1.122v1.142z" style="fill:var(--color1, #ecd979)"/>
      <path fill="#ecd979" d="M6.236 9.133H5.114V7.991h1.122v1.142zM11.847 7.991h-1.122V6.849h1.122v1.142zM11.847 6.849h-1.122V5.707h1.122v1.142zM10.725 6.849H9.603V5.707h1.122v1.142zM.626 6.849H-.496V5.707H.626v1.142z" style="fill:var(--color1, #ecd979)"/>
      <path fill="#ecd979" d="M11.847 5.708h-1.122V4.566h1.122v1.142zM10.725 5.708H9.603V4.566h1.122v1.142zM9.602 5.708H8.48V4.566h1.122v1.142zM1.748 5.708H.626V4.566h1.122v1.142zM.626 5.708H-.496V4.566H.626v1.142zM10.725 4.566H9.603V3.424h1.122v1.142zM9.602 4.566H8.48V3.424h1.122v1.142zM8.48 4.566H7.358V3.424H8.48v1.142zM2.87 4.566H1.748V3.424H2.87v1.142z" style="fill:var(--color1, #ecd979)"/>
      <path fill="#ecd979" d="M1.748 4.566H.626V3.424h1.122v1.142zM.626 4.566H-.496V3.424H.626v1.142zM9.602 3.425H8.48V2.283h1.122v1.142zM8.48 3.425H7.358V2.283H8.48v1.142zM7.358 3.425H6.236V2.283h1.122v1.142zM12.969 2.283h-1.122V1.141h1.122v1.142zM8.48 2.283H7.358V1.141H8.48v1.142zM7.358 2.283H6.236V1.141h1.122v1.142zM6.236 2.283H5.114V1.141h1.122v1.142z" style="fill:var(--color1, #ecd979)"/>
      <path fill="#ecd979" d="M12.969 1.142h-1.122V0h1.122v1.142zM11.847 1.142h-1.122V0h1.122v1.142zM7.358 1.142H6.236V0h1.122v1.142zM6.236 1.142H5.114V0h1.122v1.142zM5.114 1.142H3.992V0h1.122v1.142z" style="fill:var(--color1, #ecd979)"/>
    </symbol>
    <symbol id="icon-arrow" viewBox="0 0 48 32">
      <path fill="#ecd979" d="M40.165 18.935a64.374 64.374 0 0 1-.506-5.235c-.033-1.56.026-2.91.178-4.05L1.897 31.555.102 28.446l37.94-21.905c-1.092-.488-2.305-1.137-3.639-1.945a73.191 73.191 0 0 1-4.238-2.981L32.443.3c4.813 2.024 9.215 3.036 13.206 3.035l.769 1.332c-2.025 3.406-3.35 7.724-3.975 12.954l-2.278 1.315z" style="fill:var(--color1, #ecd979)"/>
    </symbol>
    <symbol id="icon-about-us" viewBox="0 0 20 32">
      <path d="M14.619 31.964h-1.123v-1.142h1.123v1.142zM7.882 31.964H6.759v-1.142h1.123v1.142zM6.759 31.964H5.636v-1.142h1.123v1.142zM5.636 31.964H4.513v-1.142h1.123v1.142zM1.145 31.964H.022v-1.142h1.123v1.142zM20.232 30.823h-1.123v-1.142h1.123v1.142z" opacity=".1" style="fill:var(--color2, #fcf9f9)"/>
      <path d="M15.741 30.823h-1.123v-1.142h1.123v1.142z" opacity=".1" style="fill:var(--color2, #fcf9f9)"/>
      <path d="M14.619 30.823h-1.123v-1.142h1.123v1.142zM6.759 30.823H5.636v-1.142h1.123v1.142zM5.636 30.823H4.513v-1.142h1.123v1.142zM4.513 30.823H3.39v-1.142h1.123v1.142zM20.232 29.681h-1.123v-1.142h1.123v1.142z" opacity=".1" style="fill:var(--color2, #fcf9f9)"/>
      <path d="M19.11 29.681h-1.123v-1.142h1.123v1.142zM16.864 29.681h-1.123v-1.142h1.123v1.142zM15.741 29.681h-1.123v-1.142h1.123v1.142z" opacity=".1" style="fill:var(--color2, #fcf9f9)"/>
      <path d="M14.619 29.681h-1.123v-1.142h1.123v1.142zM5.636 29.681H4.513v-1.142h1.123v1.142zM4.513 29.681H3.39v-1.142h1.123v1.142z" opacity=".1" style="fill:var(--color2, #fcf9f9)"/>
      <path d="M3.391 29.681H2.268v-1.142h1.123v1.142zM20.232 28.54h-1.123v-1.142h1.123v1.142z" opacity=".1" style="fill:var(--color2, #fcf9f9)"/>
      <path d="M19.11 28.54h-1.123v-1.142h1.123v1.142zM16.864 28.54h-1.123v-1.142h1.123v1.142zM15.741 28.54h-1.123v-1.142h1.123v1.142zM12.373 28.54H11.25v-1.142h1.123v1.142zM11.25 28.54h-1.123v-1.142h1.123v1.142zM10.127 28.54H9.004v-1.142h1.123v1.142zM4.513 28.54H3.39v-1.142h1.123v1.142z" opacity=".1" style="fill:var(--color2, #fcf9f9)"/>
      <path d="M3.391 28.54H2.268v-1.142h1.123v1.142zM2.268 28.54H1.145v-1.142h1.123v1.142zM19.11 27.398h-1.123v-1.142h1.123v1.142zM16.864 27.398h-1.123v-1.142h1.123v1.142zM13.496 27.398h-1.123v-1.142h1.123v1.142zM12.373 27.398H11.25v-1.142h1.123v1.142zM11.25 27.398h-1.123v-1.142h1.123v1.142zM3.391 27.398H2.268v-1.142h1.123v1.142zM2.268 27.398H1.145v-1.142h1.123v1.142zM1.145 27.398H.022v-1.142h1.123v1.142zM14.619 26.256h-1.123v-1.142h1.123v1.142zM13.496 26.256h-1.123v-1.142h1.123v1.142zM12.373 26.256H11.25v-1.142h1.123v1.142zM2.268 26.256H1.145v-1.142h1.123v1.142zM1.145 26.256H.022v-1.142h1.123v1.142zM19.11 25.115h-1.123v-1.142h1.123v1.142zM16.864 25.115h-1.123v-1.142h1.123v1.142zM6.759 25.115H5.636v-1.142h1.123v1.142z" opacity=".1" style="fill:var(--color2, #fcf9f9)"/>
      <path d="M1.145 25.115H.022v-1.142h1.123v1.142zM20.232 23.973h-1.123v-1.142h1.123v1.142z" opacity=".1" style="fill:var(--color2, #fcf9f9)"/>
      <path d="M19.11 23.973h-1.123v-1.142h1.123v1.142zM16.864 23.973h-1.123v-1.142h1.123v1.142zM15.741 23.973h-1.123v-1.142h1.123v1.142zM7.882 23.973H6.759v-1.142h1.123v1.142zM6.759 23.973H5.636v-1.142h1.123v1.142z" opacity=".1" style="fill:var(--color2, #fcf9f9)"/>
      <path d="M20.232 22.832h-1.123V21.69h1.123v1.142zM15.741 22.832h-1.123V21.69h1.123v1.142z" opacity=".1" style="fill:var(--color2, #fcf9f9)"/>
      <path d="M14.619 22.832h-1.123V21.69h1.123v1.142zM9.005 22.832H7.882V21.69h1.123v1.142z" opacity=".1" style="fill:var(--color2, #fcf9f9)"/>
      <path d="M7.882 22.832H6.759V21.69h1.123v1.142zM6.759 22.832H5.636V21.69h1.123v1.142zM14.619 21.69h-1.123v-1.142h1.123v1.142zM13.496 21.69h-1.123v-1.142h1.123v1.142zM9.005 21.69H7.882v-1.142h1.123v1.142z" opacity=".1" style="fill:var(--color2, #fcf9f9)"/>
      <path d="M7.882 21.69H6.759v-1.142h1.123v1.142zM13.496 20.548h-1.123v-1.142h1.123v1.142zM12.373 20.548H11.25v-1.142h1.123v1.142zM9.005 20.548H7.882v-1.142h1.123v1.142zM5.636 20.548H4.513v-1.142h1.123v1.142zM4.513 20.548H3.39v-1.142h1.123v1.142z" opacity=".1" style="fill:var(--color2, #fcf9f9)"/>
      <path d="M3.391 20.548H2.268v-1.142h1.123v1.142zM12.373 19.407H11.25v-1.142h1.123v1.142zM11.25 19.407h-1.123v-1.142h1.123v1.142zM6.759 19.407H5.636v-1.142h1.123v1.142zM5.636 19.407H4.513v-1.142h1.123v1.142z" opacity=".1" style="fill:var(--color2, #fcf9f9)"/>
      <path d="M4.513 19.407H3.39v-1.142h1.123v1.142zM17.987 18.265h-1.123v-1.142h1.123v1.142zM11.25 18.265h-1.123v-1.142h1.123v1.142zM10.127 18.265H9.004v-1.142h1.123v1.142zM7.882 18.265H6.759v-1.142h1.123v1.142zM6.759 18.265H5.636v-1.142h1.123v1.142zM5.636 18.265H4.513v-1.142h1.123v1.142zM1.123 17.124H0v-1.142h1.123v1.142zM2.268 17.124H1.145v-1.142h1.123v1.142z" opacity=".1" style="fill:var(--color2, #fcf9f9)"/>
      <path d="M1.123 18.265H0v-1.142h1.123v1.142zM1.123 15.982H0V14.84h1.123v1.142zM19.11 17.124h-1.123v-1.142h1.123v1.142zM17.987 17.124h-1.123v-1.142h1.123v1.142z" opacity=".1" style="fill:var(--color2, #fcf9f9)"/>
      <path d="M16.864 17.124h-1.123v-1.142h1.123v1.142zM17.987 15.982h-1.123V14.84h1.123v1.142zM11.25 15.982h-1.123V14.84h1.123v1.142zM10.127 15.982H9.004V14.84h1.123v1.142zM7.882 15.982H6.759V14.84h1.123v1.142zM6.759 15.982H5.636V14.84h1.123v1.142zM5.636 15.982H4.513V14.84h1.123v1.142zM12.373 14.841H11.25v-1.142h1.123v1.142z" opacity=".1" style="fill:var(--color2, #fcf9f9)"/>
      <path d="M11.25 14.841h-1.123v-1.142h1.123v1.142zM6.759 14.841H5.636v-1.142h1.123v1.142zM5.636 14.841H4.513v-1.142h1.123v1.142zM4.513 14.841H3.39v-1.142h1.123v1.142zM13.496 13.699h-1.123v-1.142h1.123v1.142zM12.373 13.699H11.25v-1.142h1.123v1.142zM9.005 13.699H7.882v-1.142h1.123v1.142zM5.636 13.699H4.513v-1.142h1.123v1.142zM4.513 13.699H3.39v-1.142h1.123v1.142z" opacity=".1" style="fill:var(--color2, #fcf9f9)"/>
      <path d="M3.391 13.699H2.268v-1.142h1.123v1.142zM14.619 12.557h-1.123v-1.142h1.123v1.142zM13.496 12.557h-1.123v-1.142h1.123v1.142zM9.005 12.557H7.882v-1.142h1.123v1.142z" opacity=".1" style="fill:var(--color2, #fcf9f9)"/>
      <path d="M7.882 12.557H6.759v-1.142h1.123v1.142zM20.232 11.416h-1.123v-1.142h1.123v1.142zM15.741 11.416h-1.123v-1.142h1.123v1.142z" opacity=".1" style="fill:var(--color2, #fcf9f9)"/>
      <path d="M14.619 11.416h-1.123v-1.142h1.123v1.142zM9.005 11.416H7.882v-1.142h1.123v1.142z" opacity=".1" style="fill:var(--color2, #fcf9f9)"/>
      <path d="M7.882 11.416H6.759v-1.142h1.123v1.142zM6.759 11.416H5.636v-1.142h1.123v1.142zM20.232 10.274h-1.123V9.132h1.123v1.142z" opacity=".1" style="fill:var(--color2, #fcf9f9)"/>
      <path d="M19.11 10.274h-1.123V9.132h1.123v1.142zM16.864 10.274h-1.123V9.132h1.123v1.142zM15.741 10.274h-1.123V9.132h1.123v1.142zM7.882 10.274H6.759V9.132h1.123v1.142zM6.759 10.274H5.636V9.132h1.123v1.142z" opacity=".1" style="fill:var(--color2, #fcf9f9)"/>
      <path d="M19.11 9.133h-1.123V7.991h1.123v1.142zM16.864 9.133h-1.123V7.991h1.123v1.142zM6.759 9.133H5.636V7.991h1.123v1.142zM1.145 7.991H.022V6.849h1.123v1.142zM14.619 6.849h-1.123V5.707h1.123v1.142zM13.496 6.849h-1.123V5.707h1.123v1.142zM12.373 6.849H11.25V5.707h1.123v1.142zM2.268 6.849H1.145V5.707h1.123v1.142zM1.145 6.849H.022V5.707h1.123v1.142zM19.11 5.708h-1.123V4.566h1.123v1.142zM16.864 5.708h-1.123V4.566h1.123v1.142z" opacity=".1" style="fill:var(--color2, #fcf9f9)"/>
      <path d="M13.496 5.708h-1.123V4.566h1.123v1.142zM12.373 5.708H11.25V4.566h1.123v1.142zM11.25 5.708h-1.123V4.566h1.123v1.142zM3.391 5.708H2.268V4.566h1.123v1.142zM2.268 5.708H1.145V4.566h1.123v1.142zM1.145 5.708H.022V4.566h1.123v1.142zM20.232 4.566h-1.123V3.424h1.123v1.142z" opacity=".1" style="fill:var(--color2, #fcf9f9)"/>
      <path d="M19.11 4.566h-1.123V3.424h1.123v1.142zM16.864 4.566h-1.123V3.424h1.123v1.142zM15.741 4.566h-1.123V3.424h1.123v1.142zM12.373 4.566H11.25V3.424h1.123v1.142zM11.25 4.566h-1.123V3.424h1.123v1.142zM10.127 4.566H9.004V3.424h1.123v1.142zM4.513 4.566H3.39V3.424h1.123v1.142z" opacity=".1" style="fill:var(--color2, #fcf9f9)"/>
      <path d="M3.391 4.566H2.268V3.424h1.123v1.142zM2.268 4.566H1.145V3.424h1.123v1.142zM20.232 3.425h-1.123V2.283h1.123v1.142z" opacity=".1" style="fill:var(--color2, #fcf9f9)"/>
      <path d="M19.11 3.425h-1.123V2.283h1.123v1.142zM16.864 3.425h-1.123V2.283h1.123v1.142zM15.741 3.425h-1.123V2.283h1.123v1.142z" opacity=".1" style="fill:var(--color2, #fcf9f9)"/>
      <path d="M14.619 3.425h-1.123V2.283h1.123v1.142zM5.636 3.425H4.513V2.283h1.123v1.142zM4.513 3.425H3.39V2.283h1.123v1.142z" opacity=".1" style="fill:var(--color2, #fcf9f9)"/>
      <path d="M3.391 3.425H2.268V2.283h1.123v1.142zM20.232 2.283h-1.123V1.141h1.123v1.142zM15.741 2.283h-1.123V1.141h1.123v1.142z" opacity=".1" style="fill:var(--color2, #fcf9f9)"/>
      <path d="M14.619 2.283h-1.123V1.141h1.123v1.142zM6.759 2.283H5.636V1.141h1.123v1.142zM5.636 2.283H4.513V1.141h1.123v1.142zM4.513 2.283H3.39V1.141h1.123v1.142z" opacity=".1" style="fill:var(--color2, #fcf9f9)"/>
      <path d="M14.619 1.142h-1.123V0h1.123v1.142zM7.882 1.142H6.759V0h1.123v1.142zM6.759 1.142H5.636V0h1.123v1.142zM5.636 1.142H4.513V0h1.123v1.142zM1.145 1.142H.022V0h1.123v1.142z" opacity=".1" style="fill:var(--color2, #fcf9f9)"/>
    </symbol>
    <symbol id="icon-star" viewBox="0 0 32 32">
<path fill="#ecd979" style="fill: var(--color1, #ecd979)" d="M15.434 0.333c0.251-0.437 0.881-0.437 1.133 0l1.84 3.203c0.19 0.33 0.621 0.429 0.935 0.214l3.081-2.107c0.418-0.286 0.987-0.008 1.020 0.496l0.239 3.642c0.025 0.383 0.374 0.662 0.754 0.602l3.69-0.584c0.504-0.080 0.9 0.423 0.706 0.894l-1.386 3.36c-0.148 0.359 0.048 0.767 0.421 0.876l3.555 1.036c0.493 0.144 0.635 0.773 0.252 1.115l-2.731 2.433c-0.291 0.26-0.291 0.715 0 0.975l2.731 2.433c0.383 0.341 0.241 0.971-0.252 1.115l-3.555 1.036c-0.373 0.109-0.569 0.517-0.421 0.876l1.386 3.36c0.194 0.471-0.202 0.974-0.706 0.894l-3.69-0.584c-0.38-0.060-0.729 0.219-0.754 0.602l-0.239 3.642c-0.033 0.505-0.603 0.782-1.020 0.496l-3.081-2.107c-0.314-0.215-0.745-0.116-0.935 0.214l-1.84 3.203c-0.251 0.437-0.881 0.437-1.133 0l-1.84-3.203c-0.19-0.33-0.621-0.429-0.935-0.214l-3.081 2.107c-0.418 0.286-0.987 0.009-1.020-0.496l-0.239-3.642c-0.025-0.383-0.374-0.662-0.754-0.602l-3.69 0.584c-0.504 0.080-0.9-0.423-0.706-0.894l1.386-3.36c0.148-0.359-0.048-0.767-0.421-0.876l-3.555-1.036c-0.493-0.144-0.635-0.773-0.252-1.115l2.731-2.433c0.291-0.26 0.291-0.715 0-0.975l-2.731-2.433c-0.383-0.341-0.241-0.971 0.252-1.115l3.555-1.036c0.373-0.109 0.569-0.517 0.421-0.876l-1.386-3.36c-0.194-0.471 0.202-0.974 0.706-0.894l3.69 0.584c0.38 0.060 0.729-0.219 0.754-0.602l0.239-3.642c0.033-0.505 0.603-0.782 1.020-0.496l3.081 2.107c0.314 0.215 0.745 0.116 0.935-0.214l1.84-3.203z"></path>
</symbol>
  </defs>
</svg>
